<?xml version="1.0" standalone="no"?>
<!DOCTYPE svg PUBLIC "-//W3C//DTD SVG 20010904//EN"
 "http://www.w3.org/TR/2001/REC-SVG-20010904/DTD/svg10.dtd">
<svg version="1.0" xmlns="http://www.w3.org/2000/svg"
 width="640.000000pt" height="640.000000pt" viewBox="0 0 640.000000 640.000000"
 preserveAspectRatio="xMidYMid meet">

<g transform="translate(0.000000,640.000000) scale(0.100000,-0.100000)"
fill="#000000" stroke="none">
<path d="M0 3200 l0 -3200 3200 0 3200 0 0 3200 0 3200 -3200 0 -3200 0 0
-3200z m2961 2164 c5 -3 9 -23 9 -44 0 -38 -1 -39 -26 -30 -123 47 -425 -75
-565 -228 -53 -58 -51 -40 4 33 87 116 252 223 410 265 66 18 142 20 168 4z
m272 -174 l97 -95 0 -972 c0 -1036 2 -985 -44 -967 -14 6 -16 100 -16 963 l0
958 -24 22 c-20 19 -24 20 -30 6 -3 -9 -5 -446 -3 -971 2 -885 1 -954 -15
-954 -51 0 -48 -68 -48 1015 l0 1003 -25 16 -25 16 0 -1010 0 -1010 -27 6
c-16 4 -31 9 -35 11 -5 2 -8 479 -8 1059 l0 1055 53 -28 c28 -15 96 -71 150
-123z m-294 34 c28 -6 31 -10 31 -46 l0 -39 -37 8 c-58 12 -118 5 -200 -22
-147 -50 -284 -134 -363 -222 -38 -42 -41 -44 -24 -14 47 83 184 206 291 260
59 30 213 81 244 81 15 0 41 -3 58 -6z m0 -150 c28 -6 31 -10 31 -45 l0 -38
-31 11 c-68 24 -262 -34 -413 -124 -39 -23 -101 -72 -138 -109 -48 -47 -63
-58 -50 -36 24 44 159 179 210 211 79 49 167 90 242 113 82 24 101 26 149 17z
m911 -37 c29 -10 36 -17 38 -44 4 -38 0 -39 -58 -18 -114 40 -270 0 -378 -98
l-46 -42 31 43 c53 73 141 138 223 163 39 11 151 9 190 -4z m233 -157 c96
-103 87 -12 85 -951 l-3 -832 -45 -13 c-25 -8 -48 -14 -52 -14 -5 0 -8 393 -8
873 l0 874 -25 23 -25 23 0 -901 0 -902 -35 0 -35 0 0 970 0 971 43 -30 c24
-16 69 -57 100 -91z m-1144 44 c28 -6 31 -10 31 -45 0 -37 -1 -38 -26 -29 -38
15 -82 12 -164 -11 -155 -43 -323 -140 -412 -238 -43 -48 -48 -51 -32 -21 11
19 57 73 104 120 96 96 217 167 350 207 82 24 102 26 149 17z m901 -32 c40
-15 45 -21 48 -51 3 -29 1 -33 -15 -27 -80 31 -137 39 -197 29 -85 -14 -170
-58 -229 -117 -61 -61 -43 -22 22 47 115 123 248 166 371 119z m-892 -118 c18
-5 22 -13 22 -44 l0 -38 -35 9 c-73 20 -258 -34 -397 -117 -45 -27 -113 -80
-151 -117 -80 -79 -65 -42 22 54 138 153 418 285 539 253z m900 -29 c38 -16
42 -20 42 -51 0 -34 0 -34 -28 -20 -120 62 -301 22 -418 -93 l-47 -46 31 46
c53 79 142 148 225 175 51 17 137 12 195 -11z m-900 -121 c18 -5 22 -13 22
-43 l0 -38 -47 10 c-124 25 -404 -100 -545 -244 -51 -53 -55 -55 -36 -21 34
59 158 175 236 222 138 82 301 132 370 114z m910 -28 c25 -13 32 -23 32 -47 0
-26 -3 -30 -17 -24 -50 21 -111 35 -149 35 -95 0 -232 -64 -296 -139 -34 -40
-29 -28 14 37 35 51 119 116 185 143 59 24 180 22 231 -5z m-905 -126 c13 0
17 -8 17 -36 l0 -35 -44 6 c-134 20 -408 -103 -550 -248 -45 -47 -55 -53 -40
-28 61 104 230 239 369 295 81 33 181 57 210 51 11 -3 28 -5 38 -5z m896 -16
c37 -14 41 -20 41 -50 l0 -33 -37 15 c-130 55 -293 19 -404 -90 -56 -55 -33
-10 30 57 107 115 243 152 370 101z m-905 -134 c21 -8 26 -16 26 -43 l0 -34
-44 10 c-53 12 -179 -16 -283 -63 -96 -44 -225 -133 -279 -193 -57 -65 -42
-33 23 48 93 115 267 223 424 264 87 23 99 24 133 11z m909 -14 c31 -16 37
-23 37 -50 l0 -32 -76 25 c-69 22 -82 24 -139 14 -90 -16 -167 -54 -226 -113
-54 -54 -55 -51 -2 22 40 55 114 112 181 139 58 24 169 21 225 -5z m-5 -146
c36 -16 42 -23 42 -50 0 -22 -4 -30 -12 -26 -156 65 -302 39 -424 -76 -69 -65
-55 -29 20 50 114 121 248 158 374 102z m-890 4 c6 -2 12 -19 12 -37 l0 -34
-43 10 c-125 28 -436 -113 -562 -256 -45 -51 -46 -51 -24 -12 34 60 157 177
235 223 153 91 299 132 382 106z m877 -145 c52 -19 55 -23 55 -54 l0 -33 -48
18 c-137 52 -271 22 -395 -89 l-41 -36 33 48 c17 26 56 65 86 88 104 79 204
98 310 58z m-896 5 c28 -6 31 -10 31 -44 l0 -38 -34 9 c-23 6 -56 5 -108 -5
-167 -32 -342 -125 -452 -239 l-59 -62 44 64 c53 77 132 149 221 203 96 57
236 109 314 117 6 1 26 -2 43 -5z m-774 -55 c-95 -50 -145 -112 -145 -180 0
-223 590 -561 1267 -728 202 -50 303 -67 486 -82 310 -26 546 31 598 144 30
68 21 122 -37 209 l-36 53 33 -30 c63 -58 80 -80 110 -140 34 -70 37 -122 10
-180 -33 -74 -106 -118 -248 -152 -120 -28 -483 -25 -650 5 -456 83 -839 208
-1181 387 -228 119 -408 266 -461 377 -26 55 -29 123 -8 164 31 58 110 116
205 150 83 29 109 31 57 3z m1675 -97 c41 -16 45 -21 48 -54 l3 -37 -46 20
c-128 56 -283 22 -399 -89 l-49 -47 30 45 c43 63 115 127 176 156 64 29 168
32 237 6z m-870 -41 l0 -38 -37 7 c-129 23 -391 -85 -531 -219 -28 -27 -52
-47 -52 -44 0 3 18 29 39 57 115 149 350 275 514 276 l67 0 0 -39z m874 -109
c41 -19 46 -24 46 -53 0 -26 -3 -30 -17 -24 -123 50 -213 48 -326 -8 -48 -24
-90 -53 -113 -80 -33 -38 -35 -39 -18 -9 42 74 141 156 224 186 57 21 141 15
204 -12z m-876 -42 l3 -35 -83 0 c-108 0 -227 -38 -349 -112 -49 -29 -93 -53
-99 -53 -22 0 -8 20 43 60 138 110 306 182 417 178 l65 -3 3 -35z m867 -101
c52 -19 55 -23 55 -54 l0 -33 -52 21 c-84 33 -187 29 -271 -11 -37 -17 -90
-52 -118 -79 -63 -58 -49 -24 20 50 107 115 240 153 366 106z m-881 -15 c10
-4 16 -18 16 -39 l0 -33 -63 5 c-70 6 -172 -17 -273 -62 -52 -23 -94 -26 -94
-6 0 10 86 58 158 89 100 43 211 63 256 46z m828 -115 c83 -18 108 -34 108
-70 0 -21 -4 -29 -12 -25 -149 62 -290 40 -417 -63 -51 -41 -53 -42 -32 -12
57 80 146 145 230 167 59 16 60 16 123 3z m-843 -35 c28 -6 31 -10 31 -41 l0
-35 -48 7 c-27 3 -76 1 -110 -5 -54 -9 -66 -9 -97 8 l-36 18 73 22 c102 31
138 36 187 26z m907 -130 c32 -16 40 -25 42 -53 3 -29 1 -33 -15 -26 -149 60
-298 40 -406 -55 -64 -55 -54 -23 11 41 36 34 89 73 125 90 55 27 70 30 133
26 42 -2 87 -12 110 -23z m-11 -145 c49 -18 55 -23 55 -50 0 -35 -18 -37 -76
-12 -28 12 -65 16 -132 15 -51 0 -103 3 -115 7 -20 8 -20 9 13 26 79 41 170
46 255 14z m-165 -474 c16 -20 57 -19 68 1 6 11 16 13 35 9 34 -9 34 -20 -2
-56 -49 -48 -125 -38 -156 21 -14 27 -14 29 8 33 12 2 25 5 28 6 4 0 12 -6 19
-14z m1869 -122 c14 -11 37 -41 51 -68 21 -43 24 -63 25 -155 0 -124 -18 -183
-71 -230 -28 -24 -44 -30 -82 -30 -103 0 -152 69 -160 224 -8 150 25 238 103
272 38 18 100 11 134 -13z m-4899 -93 l0 -100 70 0 70 0 0 100 0 100 40 0 40
0 0 -240 0 -240 -40 0 -40 0 0 105 0 105 -70 0 -70 0 0 -105 0 -105 -38 0 -39
0 0 240 -1 240 39 0 39 0 0 -100z m519 63 c6 -21 31 -121 56 -223 25 -102 48
-193 51 -202 4 -15 -1 -18 -31 -18 -20 0 -38 6 -40 13 -2 6 -9 31 -15 55 l-11
42 -68 0 -68 0 -12 -55 c-12 -54 -13 -55 -47 -55 -19 0 -34 4 -34 9 0 9 107
436 115 459 3 7 22 12 49 12 44 0 46 -1 55 -37z m491 -168 c0 -198 1 -205 20
-205 18 0 20 -7 20 -75 l0 -75 -30 0 c-28 0 -30 2 -30 40 l0 40 -120 0 -120 0
0 -41 c0 -39 -1 -40 -32 -37 l-33 3 -1 72 c0 62 2 74 18 79 44 14 53 48 56
231 l4 173 124 0 124 0 0 -205z m350 175 l0 -30 -75 0 -75 0 0 -70 0 -70 70 0
70 0 0 -30 0 -30 -70 0 -70 0 0 -75 0 -75 80 0 80 0 0 -35 0 -35 -115 0 -115
0 0 240 0 240 110 0 110 0 0 -30z m224 -69 c28 -52 57 -96 64 -99 9 -3 12 21
12 97 l0 101 41 0 40 0 -2 -97 c-1 -54 2 -98 7 -98 4 0 31 43 58 95 l51 95 43
3 43 3 -46 -83 c-88 -159 -87 -128 -11 -265 36 -65 66 -122 66 -126 0 -4 -18
-7 -40 -7 l-40 0 -52 105 c-69 139 -83 139 -83 3 l0 -103 -37 -3 -38 -3 0 105
c0 139 -12 139 -82 4 l-53 -103 -44 -3 -43 -3 53 98 c29 54 60 110 68 126 15
25 14 30 -5 65 -11 20 -40 72 -63 115 l-43 78 42 -3 43 -3 51 -94z m514 -1
l-3 -100 73 0 72 0 0 100 0 100 38 0 c35 0 38 -2 36 -27 -1 -16 -3 -124 -3
-240 l-1 -213 -35 0 -35 0 0 105 0 105 -72 0 -73 0 0 -102 0 -103 -37 -3 -38
-3 0 240 0 241 41 0 40 0 -3 -100z m397 21 l-2 -79 47 -6 c98 -13 155 -81 146
-173 -9 -100 -68 -143 -196 -143 l-70 0 0 240 0 240 38 0 38 0 -1 -79z m323
-158 l-3 -238 -37 -3 -38 -3 0 240 0 241 40 0 40 0 -2 -237z m172 70 l1 -168
60 145 c33 80 64 155 69 168 8 18 17 22 55 22 l45 0 0 -240 0 -240 -35 0 -35
0 -2 178 c-3 156 -5 173 -16 147 -7 -16 -41 -96 -74 -177 l-61 -148 -39 0 -38
0 0 240 0 240 35 0 35 0 0 -167z m700 142 c53 -47 62 -138 18 -185 l-21 -23
20 -16 c66 -52 55 -169 -20 -208 -20 -10 -64 -18 -119 -21 l-88 -4 0 242 0
242 94 -4 c77 -2 98 -7 116 -23z m230 -54 l0 -79 44 -6 c96 -15 151 -82 142
-173 -9 -100 -68 -143 -196 -143 l-70 0 0 240 0 240 40 0 40 0 0 -79z m316
-158 l-2 -238 -37 -3 -37 -3 0 240 0 241 38 0 39 0 -1 -237z m334 207 l0 -30
-80 0 -80 0 0 -60 0 -60 38 0 c88 0 152 -66 152 -156 0 -45 -5 -59 -31 -89
-37 -42 -86 -57 -171 -53 l-61 3 -1 238 -2 237 118 0 118 0 0 -30z m701 7 c44
-29 62 -68 62 -133 0 -93 -60 -154 -150 -154 l-43 0 0 -86 0 -85 -37 3 -38 3
-2 238 -2 237 88 0 c75 0 93 -3 122 -23z m-5231 -707 c0 -5 -20 -10 -45 -10
-45 0 -45 0 -45 -35 0 -33 2 -35 32 -35 42 0 68 -25 68 -66 0 -41 -30 -64 -82
-64 l-38 0 0 110 0 110 55 0 c30 0 55 -4 55 -10z m198 -94 c25 -50 -5 -116
-52 -116 -45 0 -71 60 -52 118 16 48 80 47 104 -2z m922 20 c0 -6 -15 -11 -32
-11 -31 0 -33 -2 -36 -38 -4 -46 13 -70 45 -64 15 3 23 -1 23 -9 0 -21 -54
-17 -75 6 -17 19 -23 88 -10 111 17 26 85 31 85 5z m1068 -35 c3 -30 2 -31
-37 -31 -41 0 -50 -10 -32 -39 5 -8 19 -12 35 -9 18 4 26 1 26 -8 0 -9 -12
-14 -35 -14 -30 0 -38 5 -52 34 -12 27 -14 43 -7 68 20 68 95 67 102 -1z
m1419 33 c21 -21 25 -32 20 -65 -7 -51 -22 -69 -58 -69 -59 0 -83 100 -33 139
34 27 40 26 71 -5z m179 11 c18 -14 17 -14 -14 -15 -25 0 -35 -6 -44 -25 -17
-37 0 -80 32 -81 37 0 40 -19 3 -22 -61 -6 -87 85 -38 133 28 29 34 30 61 10z
m1121 0 c30 -21 37 -65 19 -109 -12 -30 -20 -36 -44 -36 -54 0 -86 65 -58 118
22 43 48 52 83 27z m-4527 -70 c0 -43 -4 -75 -10 -75 -6 0 -10 28 -10 65 0 49
-3 65 -14 65 -9 0 -16 -17 -21 -47 -8 -58 -21 -83 -40 -83 -19 0 -19 8 -1 25
7 8 17 39 21 69 6 56 7 56 41 56 l34 0 0 -75z m180 65 c0 -5 -12 -10 -27 -10
l-28 0 3 -65 c3 -54 1 -65 -12 -65 -13 0 -16 13 -16 75 l0 75 40 0 c22 0 40
-4 40 -10z m154 -6 c3 -9 6 -41 6 -73 l0 -57 -37 -1 c-21 -1 -44 3 -50 9 -31
25 -2 78 43 78 19 0 25 5 22 18 -2 12 -13 17 -36 17 -17 0 -32 2 -32 6 0 24
75 27 84 3z m205 2 c42 -51 7 -144 -50 -132 -27 5 -29 4 -29 -29 0 -19 -4 -35
-10 -35 -6 0 -10 41 -10 103 l0 104 44 1 c27 1 48 -3 55 -12z m321 -23 l0 -38
25 38 c14 20 30 37 35 37 15 0 12 -9 -11 -42 l-21 -29 26 -37 c17 -25 22 -38
14 -41 -6 -2 -18 5 -25 15 -6 10 -19 28 -27 39 -15 19 -15 18 -16 -17 0 -21
-4 -38 -10 -38 -6 0 -10 32 -10 75 0 43 4 75 10 75 6 0 10 -17 10 -37z m254
21 c3 -9 6 -41 6 -73 l0 -57 -37 -1 c-45 -1 -63 11 -63 43 0 25 26 44 60 44
15 0 20 5 18 18 -2 12 -13 17 -36 17 -17 0 -32 2 -32 6 0 24 75 27 84 3z m196
-59 c0 -43 -4 -75 -10 -75 -5 0 -10 13 -10 30 0 35 -20 32 -40 -6 -7 -13 -20
-24 -27 -24 -11 0 -10 6 4 30 13 23 15 32 5 42 -15 15 -15 51 0 66 7 7 27 12
45 12 l33 0 0 -75z m230 45 c0 -27 3 -30 30 -30 27 0 30 3 30 30 0 17 5 30 10
30 6 0 10 -32 10 -75 0 -43 -4 -75 -10 -75 -5 0 -10 16 -10 35 0 32 -2 35 -30
35 -28 0 -30 -3 -30 -35 0 -19 -4 -35 -10 -35 -6 0 -10 32 -10 75 0 43 4 75
10 75 6 0 10 -13 10 -30z m460 -35 c0 -37 4 -65 10 -65 6 0 10 -16 10 -35 0
-19 -4 -35 -10 -35 -5 0 -10 11 -10 25 0 23 -3 25 -50 25 -47 0 -50 -2 -50
-25 0 -14 -4 -25 -10 -25 -16 0 -12 60 5 76 10 10 15 35 15 70 l0 54 45 0 45
0 0 -65z m191 49 c10 -12 10 -20 1 -34 -7 -12 -8 -21 -2 -25 17 -11 11 -54 -9
-65 -11 -5 -33 -10 -50 -10 l-31 0 0 75 0 75 39 0 c23 0 44 -6 52 -16z m120
-36 l0 -53 27 53 c38 75 52 69 52 -23 0 -85 -17 -103 -22 -22 l-3 52 -28 -52
c-15 -29 -32 -53 -37 -53 -6 0 -10 33 -10 75 0 43 4 75 10 75 6 0 10 -24 11
-52z m208 25 l20 -28 1 28 c0 17 5 27 15 27 10 0 15 -10 15 -27 l1 -28 17 28
c26 41 46 34 21 -8 -20 -34 -20 -35 -1 -62 32 -47 34 -53 19 -53 -8 0 -22 16
-33 35 -10 19 -21 35 -24 35 -3 0 -4 -16 -2 -35 3 -27 1 -35 -12 -35 -12 0
-16 10 -16 38 l-1 37 -22 -37 c-12 -21 -28 -38 -35 -38 -14 0 -11 7 20 53 19
27 19 28 -1 62 -24 42 -11 47 18 8z m221 -30 l0 -58 27 58 c16 35 32 57 40 55
8 -2 14 -6 14 -10 -1 -5 -1 -37 -1 -73 0 -37 -4 -65 -10 -65 -5 0 -10 26 -11
58 l-1 57 -26 -57 c-38 -80 -52 -76 -52 17 0 43 4 75 10 75 6 0 10 -26 10 -57z
m220 12 c14 -52 25 -50 41 5 9 28 18 40 31 40 17 0 19 -8 17 -75 -1 -56 -5
-75 -15 -75 -10 0 -14 15 -15 53 l-1 52 -15 -42 c-8 -24 -18 -43 -23 -43 -5 0
-15 19 -23 43 l-15 42 -1 -52 c-1 -29 -5 -53 -11 -53 -6 0 -10 32 -10 75 0 88
20 103 40 30z m640 35 c0 -5 -11 -10 -25 -10 -24 0 -25 -2 -25 -65 0 -37 -4
-65 -10 -65 -6 0 -10 28 -10 65 0 58 -2 65 -20 65 -11 0 -20 5 -20 10 0 6 25
10 55 10 30 0 55 -4 55 -10z m90 -15 c0 -21 5 -25 28 -25 35 0 52 -16 52 -52
0 -32 -24 -48 -69 -48 l-31 0 0 75 c0 43 4 75 10 75 6 0 10 -11 10 -25z m279
-19 c6 -25 11 -55 11 -68 1 -33 14 -6 30 60 7 30 17 52 25 52 25 0 -41 -205
-70 -216 -26 -10 -30 4 -6 23 l21 18 -24 88 c-19 66 -22 87 -12 87 8 0 19 -20
25 -44z m291 7 c18 -57 26 -59 42 -11 8 24 22 44 31 46 15 3 17 -7 17 -72 0
-44 -4 -76 -10 -76 -5 0 -10 26 -11 58 l0 57 -23 -50 c-22 -50 -23 -50 -36
-26 -7 14 -16 36 -21 50 -5 20 -7 12 -8 -31 -1 -32 -5 -58 -11 -58 -6 0 -10
32 -10 75 0 58 3 75 14 75 8 0 20 -17 26 -37z m478 4 c26 -55 -12 -124 -63
-115 -23 5 -25 2 -25 -28 0 -19 -4 -34 -10 -34 -6 0 -10 41 -10 104 l0 104 47
-2 c42 -1 49 -5 61 -29z m182 -42 c0 -43 -4 -75 -10 -75 -5 0 -10 11 -10 25 0
33 -23 32 -48 -2 -25 -34 -40 -25 -18 10 15 22 15 26 1 37 -20 17 -19 57 3 69
9 6 32 11 50 11 l32 0 0 -75z"/>
<path d="M5409 2474 c-22 -24 -24 -34 -27 -147 -3 -102 0 -128 15 -156 37 -72
110 -53 132 33 14 57 14 165 0 222 -19 73 -75 96 -120 48z"/>
<path d="M1092 2425 c-12 -43 -42 -173 -42 -181 0 -2 23 -4 50 -4 33 0 50 4
50 13 0 6 -11 57 -24 112 l-23 100 -11 -40z"/>
<path d="M1476 2368 c-7 -118 -15 -172 -31 -210 -6 -16 0 -18 64 -18 l71 0 0
175 0 175 -49 0 -48 0 -7 -122z"/>
<path d="M3137 2313 c-4 -3 -7 -44 -7 -90 l0 -83 43 0 c30 0 49 6 60 18 40 44
28 135 -20 153 -28 11 -67 12 -76 2z"/>
<path d="M4190 2420 l0 -70 38 0 c48 0 72 24 72 73 0 43 -28 67 -77 67 l-33 0
0 -70z"/>
<path d="M4190 2210 l0 -70 43 0 c49 0 72 14 80 49 6 26 -8 72 -26 83 -7 4
-31 8 -54 8 l-43 0 0 -70z"/>
<path d="M4560 2230 l0 -90 38 0 c45 0 69 21 78 68 12 62 -28 112 -91 112 -25
0 -25 -1 -25 -90z"/>
<path d="M5050 2225 l0 -85 40 0 c52 0 80 27 80 76 0 48 -14 70 -51 83 -66 23
-69 20 -69 -74z"/>
<path d="M5780 2394 l0 -97 42 6 c55 7 78 35 78 94 0 57 -33 93 -85 93 l-35 0
0 -96z"/>
<path d="M590 1675 c0 -41 2 -45 24 -45 45 0 72 50 44 78 -7 7 -25 12 -40 12
-27 0 -28 -2 -28 -45z"/>
<path d="M797 1733 c-14 -13 -7 -81 9 -94 33 -27 64 21 50 77 -5 17 -13 24
-30 24 -12 0 -26 -3 -29 -7z"/>
<path d="M2790 1721 c-10 -19 -8 -21 25 -21 29 0 36 3 33 18 -5 25 -44 27 -58
3z"/>
<path d="M4222 1728 c-16 -16 -15 -60 2 -83 29 -39 76 17 57 68 -11 29 -38 36
-59 15z"/>
<path d="M5527 1733 c-14 -13 -7 -81 9 -94 33 -27 64 21 50 77 -5 17 -13 24
-30 24 -12 0 -26 -3 -29 -7z"/>
<path d="M1323 1664 c-3 -8 -1 -20 5 -26 16 -16 47 -5 50 20 3 18 -1 22 -23
22 -14 0 -28 -7 -32 -16z"/>
<path d="M1527 1734 c-4 -4 -7 -27 -7 -50 0 -34 4 -44 20 -49 33 -10 51 13 48
59 -3 35 -6 41 -28 44 -14 2 -29 0 -33 -4z"/>
<path d="M2103 1664 c-8 -22 11 -37 36 -29 31 10 28 45 -4 45 -14 0 -28 -7
-32 -16z"/>
<path d="M2304 1725 c-7 -18 12 -45 32 -45 9 0 14 11 14 30 0 23 -4 30 -20 30
-11 0 -23 -7 -26 -15z"/>
<path d="M2990 1701 c0 -22 -3 -46 -6 -55 -5 -13 1 -16 25 -16 31 0 31 0 31
55 0 52 -1 55 -25 55 -22 0 -25 -4 -25 -39z"/>
<path d="M3180 1720 c0 -15 7 -20 25 -20 18 0 25 5 25 20 0 15 -7 20 -25 20
-18 0 -25 -5 -25 -20z"/>
<path d="M3180 1655 c0 -23 4 -26 28 -23 19 2 27 9 27 23 0 14 -8 21 -27 23
-24 3 -28 0 -28 -23z"/>
<path d="M4750 1666 c0 -32 3 -36 25 -36 47 0 44 61 -4 68 -18 3 -21 -1 -21
-32z"/>
<path d="M5717 1734 c-4 -4 -7 -27 -7 -51 0 -31 5 -45 16 -50 30 -11 49 11 49
58 0 40 -3 44 -25 47 -14 2 -29 0 -33 -4z"/>
<path d="M5903 1724 c-4 -11 1 -22 12 -31 26 -18 39 -12 42 20 1 23 -2 27 -23
27 -14 0 -27 -7 -31 -16z"/>
</g>
</svg>
